<?xml version="1.0" standalone="no"?><!DOCTYPE svg PUBLIC "-//W3C//DTD SVG 1.1//EN" "http://www.w3.org/Graphics/SVG/1.1/DTD/svg11.dtd">
<svg t="1667890935556" class="icon" viewBox="0 0 1092 1024" version="1.1"
    xmlns="http://www.w3.org/2000/svg" p-id="7090" width="34.125" height="32"
    xmlns:xlink="http://www.w3.org/1999/xlink">
    <path d="M935.032471 60.235294c37.647059 0 68.065882 30.479059 68.065882 68.065882v750.170353a68.065882 68.065882 0 0 1-68.065882 68.065883H164.141176a68.065882 68.065882 0 0 1-68.065882-68.065883V128.301176c0-37.586824 30.479059-68.065882 68.065882-68.065882h770.891295z m0 60.235294H164.141176a7.830588 7.830588 0 0 0-7.469176 5.360941l-0.361412 2.469647v750.170353a7.830588 7.830588 0 0 0 5.360941 7.469177l2.469647 0.361412h770.891295a7.830588 7.830588 0 0 0 7.469176-5.360942l0.421647-2.469647V128.301176a7.830588 7.830588 0 0 0-5.421176-7.469176l-2.409412-0.361412z" fill="#454545" p-id="7091"></path>
    <path d="M274.612706 262.204235m53.729882 0l-0.060235 0q53.729882 0 53.729882 53.729883l0-0.060236q0 53.729882-53.729882 53.729883l0.060235 0q-53.729882 0-53.729882-53.729883l0 0.060236q0-53.729882 53.729882-53.729883Z" fill="#454545" p-id="7092"></path>
    <path d="M745.050353 278.708706a30.117647 30.117647 0 0 1 5.421176 59.753412l-5.421176 0.481882H476.581647a30.117647 30.117647 0 0 1-5.421176-59.753412l5.421176-0.481882h268.589177z" fill="#454545" p-id="7093"></path>
    <path d="M274.612706 477.063529m53.729882 0l-0.060235 0q53.729882 0 53.729882 53.729883l0-0.060236q0 53.729882-53.729882 53.729883l0.060235 0q-53.729882 0-53.729882-53.729883l0 0.060236q0-53.729882 53.729882-53.729883Z" fill="#454545" p-id="7094"></path>
    <path d="M745.050353 493.568a30.117647 30.117647 0 0 1 5.421176 59.753412l-5.421176 0.481882H476.581647a30.117647 30.117647 0 0 1-5.421176-59.753412l5.421176-0.481882h268.589177z" fill="#454545" p-id="7095"></path>
</svg>