<svg t="1667893428581" class="icon" viewBox="0 0 1024 1024" version="1.1"
    xmlns="http://www.w3.org/2000/svg" p-id="29608" width="32" height="32">
    <path d="M361.792 96.672c113.344 8.96 154.784 201.536 253.184 133.664 98.4-67.84 194.528-110.432 228.032 0 22.336 73.632 48.32 276.576 77.856 608.832-84.896 110.688-160.8 138.368-227.68 83.008-100.32-83.008-272.928-155.04-368.8-60.832C228.48 955.52 96 925.408 96 861.344c0-42.72 25.216-264.704 75.68-665.952 51.2-71.776 114.56-104.64 190.112-98.72zM812.384 239.68c-11.296-37.28-27.072-48.096-54.912-44.448-29.984 3.936-70.816 24.576-124.32 61.472-54.08 37.312-100.064 22.528-149.376-28.384-5.12-5.28-10.336-10.912-16.768-18.144l-16.224-18.24c-38.784-43.328-62.72-61.056-91.52-63.328-61.6-4.832-112.96 20.544-156.864 79.04C153.024 600.64 128 820.992 128 861.312c0 11.744 17.6 24.864 48.896 27.456 41.088 3.424 87.584-13.44 125.056-50.272 99.104-97.376 274.752-54.272 411.616 59.008 48 39.68 102.72 21.664 174.304-68.096-28.864-322.176-54.336-520.096-75.488-589.792z" fill="#1B92E9" p-id="29609"></path>
</svg>