<svg t="1667893076898" class="icon" viewBox="0 0 1024 1024" version="1.1"
    xmlns="http://www.w3.org/2000/svg" p-id="15870" width="32" height="32">
    <path d="M512 512m-512 0a512 512 0 1 0 1024 0 512 512 0 1 0-1024 0Z" fill="#F9F9FB" p-id="15871"></path>
    <path d="M378.434783 667.826087m22.260869 0l0 0q22.26087 0 22.26087 22.26087l0 111.304347q0 22.26087-22.26087 22.26087l0 0q-22.26087 0-22.260869-22.26087l0-111.304347q0-22.26087 22.260869-22.26087Z" fill="#1B92E9" p-id="15872"></path>
    <path d="M512 667.826087m22.26087 0l0 0q22.26087 0 22.260869 22.26087l0 66.782608q0 22.26087-22.260869 22.26087l0 0q-22.26087 0-22.26087-22.26087l0-66.782608q0-22.26087 22.26087-22.26087Z" fill="#1B92E9" p-id="15873"></path>
    <path d="M645.565217 667.826087m22.26087 0l0 0q22.26087 0 22.26087 22.26087l0 111.304347q0 22.26087-22.26087 22.26087l0 0q-22.26087 0-22.26087-22.26087l0-111.304347q0-22.26087 22.26087-22.26087Z" fill="#1B92E9" p-id="15874"></path>
    <path d="M779.130435 601.043478a22.26087 22.26087 0 0 1 44.521739 0v133.565218a111.304348 111.304348 0 0 1-111.304348 111.304347H333.913043a111.304348 111.304348 0 0 1-111.304347-111.304347v-133.565218a22.26087 22.26087 0 0 1 44.521739 0v133.565218a66.782609 66.782609 0 0 0 66.782608 66.782608h378.434783a66.782609 66.782609 0 0 0 66.782609-66.782608v-133.565218z" fill="#1B92E9" p-id="15875"></path>
    <path d="M500.869565 267.219478m22.26087 0l0 0q22.26087 0 22.260869 22.26087l0 44.521739q0 22.26087-22.260869 22.26087l0 0q-22.26087 0-22.26087-22.26087l0-44.521739q0-22.26087 22.26087-22.26087Z" fill="#1B92E9" p-id="15876"></path>
    <path d="M690.086957 422.956522h-66.782609a22.26087 22.26087 0 0 1 0-44.521739h66.782609a155.826087 155.826087 0 0 1 155.826086 155.826087v22.260869H200.347826v-22.260869a155.826087 155.826087 0 0 1 155.826087-155.826087h66.782609a22.26087 22.26087 0 1 1 0 44.521739H356.173913a111.34887 111.34887 0 0 0-109.078261 89.043478h552.069565a111.34887 111.34887 0 0 0-109.07826-89.043478z" fill="#1B92E9" p-id="15877"></path>
    <path d="M445.217391 400.695652a22.26087 22.26087 0 1 1-44.521739 0V300.521739a122.434783 122.434783 0 0 1 244.869565 0V400.695652a22.26087 22.26087 0 0 1-44.521739 0V300.521739a77.913043 77.913043 0 0 0-155.826087 0V400.695652z" fill="#1B92E9" p-id="15878"></path>
</svg>